# xmcd
#
# Track frame offsets:
#	150
#	6098
#	19047
#	43169
#	51321
#	66073
#	82557
#	97092
#	127248
#	142998
#	153260
#	170010
#	194546
#	233733
#
# Disc length: 3295 seconds
#
# Revision: 0
# Processed by: cddbd v1.4PL0 Copyright (c) Steve Scherf et al.
# Submitted via: audiograbber 1.81.02
#
DISCID=b70cdd0e
DTITLE=Country Gazette - World Standard
DYEAR=1900
DGENRE=Alternative
TTITLE0=Introduction
TTITLE1=Good Red Road
TTITLE2=The Lonely Driver 1952
TTITLE3=Country Sad Ballad Man
TTITLE4=Loser's Lounge
TTITLE5=Old Man Blues
TTITLE6=Loving Spoonful
TTITLE7=Billy Strange Country
TTITLE8=My Low-Chuned Banjo
TTITLE9=900Miles From Home
TTITLE10=Silent Homecoming
TTITLE11=Hollyville Train
TTITLE12=Montage: Lonesome Hobo-Land
TTITLE13=Cowboys Don't Cry (Hank Williams Lost Lyrics)
EXTD=
EXTT0=
EXTT1=
EXTT2=
EXTT3=
EXTT4=
EXTT5=
EXTT6=
EXTT7=
EXTT8=
EXTT9=
EXTT10=
EXTT11=
EXTT12=
EXTT13=
PLAYORDER=
